<?xml version="1.0" encoding="iso-8859-1"?>
<!-- Uploaded to: SVG Repo, www.svgrepo.com, Generator: SVG Repo Mixer Tools -->
<svg height="800px" width="800px" version="1.1" id="Layer_1" xmlns="http://www.w3.org/2000/svg" xmlns:xlink="http://www.w3.org/1999/xlink" 
	 viewBox="0 0 511.999 511.999" xml:space="preserve">
<path style="fill:#D6E5F6;" d="M434.83,1.624c-7.967-3.301-17.146-1.478-23.249,4.625L383.999,33.83L356.418,6.249
	c-8.33-8.331-21.838-8.331-30.17,0L298.666,33.83L271.085,6.249c-8.33-8.331-21.838-8.331-30.17,0L213.333,33.83L185.752,6.249
	c-8.33-8.331-21.838-8.331-30.17,0L128,33.83L100.419,6.249c-6.1-6.103-15.28-7.926-23.249-4.625C69.198,4.927,64,12.705,64,21.333
	v469.332c0,11.782,9.552,21.333,21.333,21.333h341.332c11.782,0,21.333-9.552,21.333-21.333V21.333
	C447.999,12.705,442.802,4.927,434.83,1.624z"/>
<path style="fill:#BCD6F2;" d="M434.83,1.624c-7.967-3.301-17.146-1.478-23.249,4.625L383.999,33.83L356.418,6.249
	c-8.33-8.331-21.838-8.331-30.17,0L298.666,33.83L271.085,6.249C266.919,2.084,261.459,0,255.999,0v511.999h170.666
	c11.782,0,21.333-9.552,21.333-21.333V21.333C447.999,12.705,442.802,4.927,434.83,1.624z"/>
<g>
	<path style="fill:#8CB7E8;" d="M298.666,384h-128c-11.782,0-21.333,9.55-21.333,21.333c0,11.78,9.552,21.333,21.333,21.333h128
		c11.782,0,21.333-9.553,21.333-21.333C319.999,393.551,310.449,384,298.666,384z"/>
	<path style="fill:#8CB7E8;" d="M341.332,298.667H170.666c-11.782,0-21.333,9.55-21.333,21.333c0,11.78,9.552,21.333,21.333,21.333
		h170.666c11.782,0,21.333-9.553,21.333-21.333C362.666,308.218,353.115,298.667,341.332,298.667z"/>
	<path style="fill:#8CB7E8;" d="M170.666,256.001h128c11.782,0,21.333-9.553,21.333-21.333c0-11.783-9.552-21.333-21.333-21.333
		h-128c-11.782,0-21.333,9.55-21.333,21.333C149.333,246.448,158.885,256.001,170.666,256.001z"/>
	<path style="fill:#8CB7E8;" d="M170.666,170.668h170.666c11.782,0,21.333-9.553,21.333-21.333c0-11.783-9.552-21.333-21.333-21.333
		H170.666c-11.782,0-21.333,9.55-21.333,21.333C149.333,161.115,158.885,170.668,170.666,170.668z"/>
</g>
<g>
	<path style="fill:#6398DE;" d="M298.666,426.667c11.782,0,21.333-9.553,21.333-21.333c0-11.783-9.552-21.333-21.333-21.333h-42.667
		v42.667H298.666z"/>
	<path style="fill:#6398DE;" d="M341.332,298.667h-85.333v42.667h85.333c11.782,0,21.333-9.553,21.333-21.333
		C362.666,308.218,353.115,298.667,341.332,298.667z"/>
	<path style="fill:#6398DE;" d="M319.999,234.668c0-11.783-9.552-21.333-21.333-21.333h-42.667v42.667h42.667
		C310.449,256.001,319.999,246.448,319.999,234.668z"/>
	<path style="fill:#6398DE;" d="M362.666,149.334c0-11.783-9.552-21.333-21.333-21.333h-85.333v42.667h85.333
		C353.115,170.668,362.666,161.115,362.666,149.334z"/>
</g>
</svg>